<svg width="621" height="233" viewBox="0 0 621 233" fill="none" xmlns="http://www.w3.org/2000/svg">
<path d="M218.186 100.892V106.105C215.495 102.742 210.953 99.7986 204.981 99.7986C192.533 99.7986 183.028 109.72 183.028 121.828C183.028 133.432 192.869 144.278 204.981 144.278C210.953 144.278 215.495 141.42 218.186 138.056V143.185H233.494V100.892H218.186ZM218.859 123.426C217.934 128.471 214.064 131.666 209.018 131.666C202.626 131.666 198.842 127.293 198.842 121.828C198.842 115.858 202.289 112.411 209.018 112.411C214.064 112.411 217.934 115.69 218.859 120.735V123.426Z" fill="#DA2C2C"/>
<path d="M270.055 100.63C264.084 100.63 259.542 103.489 256.766 106.852V101.723H241.877V144.017H257.185V121.482C258.027 116.438 260.971 113.243 265.429 113.243C270.392 113.243 271.737 115.26 271.737 121.062V144.017H287.045V121.062C287.045 108.029 281.997 100.63 270.055 100.63Z" fill="#DA2C2C"/>
<path d="M313.787 112.753H325.984V100.561H313.787V83.9971H298.479V100.561H291.078V112.753H298.479V142.855H313.787V112.753Z" fill="#DA2C2C"/>
<path d="M347.194 113C347.194 111.738 348.12 111.15 352.156 111.15C356.026 111.15 359.728 112.075 363.344 114.177L368.307 104.171C363.428 101.228 358.381 99.7986 351.146 99.7986C340.718 99.7986 331.634 102.994 331.634 113.084C331.634 120.315 337.27 123.51 343.578 125.78C350.642 128.302 352.829 129.227 352.829 131.077C352.829 132.254 351.652 132.843 347.448 132.843C343.999 132.843 338.28 131.161 334.327 128.891L329.701 139.569C335.083 142.597 340.802 144.278 348.962 144.278C359.895 144.278 368.39 141.42 368.39 130.741C368.39 123.089 363.006 120.062 355.27 117.456C348.541 115.186 347.194 114.597 347.194 113Z" fill="#DA2C2C"/>
<path d="M394.71 112.591H406.906V100.399H394.71V83.8347H379.402V100.399H372V112.591H379.402V142.692H394.71V112.591Z" fill="#DA2C2C"/>
<path d="M445.462 100.892V106.105C442.77 102.742 438.228 99.7986 432.257 99.7986C419.809 99.7986 410.305 109.72 410.305 121.828C410.305 133.432 420.145 144.278 432.257 144.278C438.228 144.278 442.77 141.42 445.462 138.056V143.185H460.77V100.892H445.462ZM446.134 123.426C445.208 128.471 441.341 131.666 436.294 131.666C429.901 131.666 426.117 127.293 426.117 121.828C426.117 115.858 429.566 112.411 436.294 112.411C441.341 112.411 445.208 115.69 446.134 120.735V123.426Z" fill="#DA2C2C"/>
<path d="M492.956 131.666C487.404 131.666 483.284 127.966 483.284 121.912C483.367 115.606 486.481 112.411 492.367 112.411C495.986 112.411 500.19 113.168 503.976 114.765V101.985C500.106 100.555 496.993 99.7986 492.367 99.7986C479.247 99.7986 467.471 108.543 467.471 121.912C467.471 135.029 479.163 144.278 492.367 144.278C496.49 144.278 500.528 143.69 503.976 142.513V129.648C499.434 131.33 496.153 131.666 492.956 131.666Z" fill="#DA2C2C"/>
<path d="M558.059 142.693L533.919 118.309L556.798 100.399H537.537L526.267 109.228V71.9797H511.126V142.693H526.267V129.492L539.05 142.693H558.059Z" fill="#DA2C2C"/>
<path d="M572.066 71.749C574.676 71.749 577.015 72.3501 579.084 73.5525C581.154 74.7102 582.772 76.3355 583.942 78.4283C585.112 80.4767 585.696 82.7922 585.696 85.3748C585.696 87.9576 585.112 90.2953 583.942 92.3882C582.772 94.481 581.154 96.1286 579.084 97.3308C577.015 98.4886 574.676 99.0675 572.066 99.0675C569.413 99.0675 567.051 98.4886 564.982 97.3308C562.913 96.1286 561.293 94.481 560.124 92.3882C558.954 90.2953 558.369 87.9576 558.369 85.3748C558.369 82.7922 558.954 80.4767 560.124 78.4283C561.293 76.3355 562.913 74.7102 564.982 73.5525C567.051 72.3501 569.413 71.749 572.066 71.749ZM572.066 96.3957C575.306 96.3957 577.914 95.3716 579.894 93.3233C581.918 91.275 582.93 88.6254 582.93 85.3748C582.93 82.1243 581.918 79.4747 579.894 77.4264C577.914 75.3781 575.306 74.354 572.066 74.354C568.783 74.354 566.151 75.3781 564.172 77.4264C562.238 79.4747 561.271 82.1243 561.271 85.3748C561.271 88.6254 562.238 91.275 564.172 93.3233C566.151 95.3716 568.783 96.3957 572.066 96.3957ZM578.139 82.5695C578.139 83.6383 577.847 84.551 577.262 85.308C576.723 86.0206 575.958 86.5326 574.968 86.8443L578.747 92.3882L574.496 92.455L571.258 87.1115H570.11V92.455H566.601V78.0944H573.079C574.608 78.0944 575.823 78.4952 576.723 79.2966C577.667 80.0982 578.139 81.1892 578.139 82.5695ZM570.11 84.2394H572.876C573.372 84.2394 573.776 84.1058 574.091 83.8386C574.451 83.5715 574.631 83.1929 574.631 82.7032C574.631 82.2133 574.451 81.8571 574.091 81.6344C573.776 81.3673 573.372 81.2336 572.876 81.2336H570.11V84.2394Z" fill="#DA2C2C"/>
<path fill-rule="evenodd" clip-rule="evenodd" d="M96.13 188.69C92.2237 188.754 86.6199 185.583 86.6199 185.583C74.88 179.708 51.9365 156.863 49.1136 127.908C46.3753 99.8192 60.9422 72.4139 95.7676 72.2945L95.8214 72.2942C95.8426 72.2942 95.8637 72.2942 95.8849 72.2942L95.9964 72.2939C130.822 72.4134 145.389 99.8192 142.65 127.908C139.827 156.863 116.884 179.708 105.144 185.583C105.144 185.583 99.8529 188.63 96.13 188.69Z" fill="#082D59"/>
<path fill-rule="evenodd" clip-rule="evenodd" d="M127.643 55.52C132.255 52.7496 138.141 49.3126 143.253 46.5445C145.848 45.1393 148.23 43.9136 150.138 43.036C151.094 42.5966 151.915 42.2518 152.576 42.0163C153.276 41.7667 153.675 41.6849 153.834 41.6797C155.5 41.6259 156.381 40.5577 156.739 39.6206C157.115 38.6383 157.087 37.4419 156.6 36.5094C156.354 36.0395 155.963 35.5838 155.37 35.2792C154.747 34.9594 153.982 34.8494 153.149 34.9894C152.35 35.1237 151.525 35.48 150.671 36.0371C149.811 36.5981 148.875 37.3939 147.858 38.4648C141.614 45.0358 131.901 50.033 127.849 51.6966L127.698 51.7586L127.588 51.8567C127.372 52.0489 127.063 52.2919 126.693 52.5375C126.169 52.3649 125.58 52.3353 125.059 52.3687C124.235 52.4213 123.361 52.6393 122.593 52.939C121.827 53.2379 121.093 53.6474 120.594 54.1283C120.101 54.6039 119.742 55.2556 120.089 55.9415L120.09 55.9438C120.091 55.9463 120.093 55.9515 120.095 55.9594C120.1 55.9719 120.104 55.9895 120.109 56.0132C120.118 56.0612 120.126 56.1255 120.128 56.2083C120.133 56.3752 120.117 56.5922 120.078 56.8605C120 57.397 119.834 58.0916 119.592 58.9146C119.111 60.5581 118.346 62.6592 117.449 64.9242C115.656 69.4514 113.352 74.5898 111.776 77.9394L111.192 79.1818L117.525 77.7589L116.638 76.9898C116.401 76.7843 116.307 76.3672 116.488 75.7298C116.659 75.1325 117.021 74.529 117.3 74.1658L117.381 74.0588L117.406 73.9375C117.971 71.1158 120.451 63.9498 125.78 58.0704C126.687 57.0703 127.293 56.2271 127.643 55.52ZM64.2823 55.5905C59.6707 52.8201 53.7847 49.3831 48.6729 46.6149C46.078 45.2097 43.696 43.9841 41.7872 43.1064C40.8316 42.6671 40.0104 42.3222 39.35 42.0867C38.6501 41.8371 38.2506 41.7553 38.092 41.7502C36.426 41.6964 35.5443 40.6281 35.1864 39.691C34.8112 38.7087 34.8386 37.5123 35.326 36.5798C35.5716 36.11 35.9623 35.6542 36.5558 35.3496C37.1789 35.0299 37.944 34.9198 38.7768 35.0598C39.5753 35.1941 40.4009 35.5505 41.2546 36.1075C42.1145 36.6686 43.0504 37.4643 44.0679 38.5353C50.3118 45.1063 60.025 50.1035 64.0762 51.7668L64.2275 51.8291L64.3374 51.9269C64.5532 52.1193 64.8626 52.3623 65.233 52.6079C65.7562 52.4354 66.3457 52.4057 66.8668 52.4392C67.6902 52.4918 68.5651 52.7098 69.3329 53.0095C70.0989 53.3084 70.833 53.7178 71.3315 54.1988C71.8245 54.6743 72.1832 55.326 71.8368 56.0119L71.8358 56.0142C71.8353 56.0155 71.8345 56.0171 71.8337 56.0194C71.8327 56.0222 71.8314 56.0255 71.8302 56.0298C71.8261 56.0423 71.8212 56.0599 71.8166 56.0837C71.8075 56.1317 71.8001 56.196 71.7978 56.2787C71.7929 56.4457 71.8085 56.6626 71.8475 56.9309C71.9261 57.4675 72.0921 58.1621 72.3334 58.9851C72.815 60.6285 73.5798 62.7296 74.4766 64.9947C76.2696 69.5219 78.574 74.6602 80.1494 78.0099L80.7337 79.2523L74.4011 77.8294L75.2878 77.0603C75.5247 76.8548 75.6191 76.4377 75.4373 75.8002C75.2669 75.2029 74.9046 74.5995 74.6261 74.2362L74.5442 74.1292L74.5197 74.008C73.9542 71.1862 71.4748 64.0203 66.1457 58.1409C65.2391 57.1408 64.6325 56.2973 64.2823 55.5905Z" fill="#082D59"/>
<path fill-rule="evenodd" clip-rule="evenodd" d="M73.0618 166.63C75.3749 168.719 77.7731 170.885 79.9898 173.006C81.0122 173.984 82.2916 175.243 83.2477 176.39C83.2834 176.433 83.3275 176.477 83.3727 176.522C83.5127 176.661 83.6637 176.811 83.6076 176.975C83.5925 177.02 83.5423 177.036 83.4933 177.051C83.4737 177.057 83.454 177.063 83.4372 177.071C83.2528 177.158 83.1222 177.211 83.0148 177.255C82.7123 177.38 82.5931 177.429 81.9644 177.925C79.3131 180.016 77.5071 182.859 76.0638 185.888C75.983 186.058 75.9118 186.232 75.8409 186.407C75.7424 186.649 75.644 186.891 75.5192 187.12C75.5169 187.124 75.5147 187.129 75.5121 187.133C75.4522 187.244 75.3687 187.398 75.2494 187.384C75.0124 187.357 74.8423 186.71 74.7333 186.296C74.6989 186.164 74.6703 186.056 74.6479 185.998C74.4336 185.45 74.3969 185.802 74.3596 186.16C74.3548 186.205 74.35 186.251 74.3449 186.296C74.0602 188.725 73.9541 191.195 74.4017 193.612C74.6339 194.865 75.1517 196.16 75.7657 197.284C75.8646 197.465 75.8427 197.5 75.5667 197.361C73.6288 196.38 72.2616 194.141 71.2905 192.284C69.832 189.494 69.2922 186.567 69.1027 183.443C68.8601 179.447 68.8341 175.289 69.4009 171.318C69.6761 169.391 70.3745 167.755 71.1722 166.025C71.2102 165.942 71.2469 165.848 71.2846 165.751C71.3548 165.571 71.4285 165.381 71.5224 165.239C72.0292 165.698 72.5435 166.162 73.0618 166.63ZM119.021 166.63C116.708 168.719 114.31 170.885 112.093 173.006C111.071 173.984 109.791 175.243 108.835 176.39C108.8 176.433 108.756 176.477 108.711 176.522C108.57 176.661 108.419 176.811 108.475 176.975C108.49 177.02 108.541 177.036 108.59 177.051C108.609 177.057 108.629 177.063 108.646 177.071C108.83 177.158 108.961 177.211 109.068 177.256C109.371 177.38 109.49 177.429 110.119 177.925C112.77 180.016 114.576 182.86 116.019 185.888C116.1 186.058 116.171 186.233 116.242 186.407C116.341 186.649 116.439 186.891 116.564 187.12L116.571 187.133C116.631 187.244 116.714 187.398 116.834 187.384C117.071 187.357 117.241 186.71 117.35 186.296C117.384 186.164 117.413 186.056 117.435 185.998C117.649 185.45 117.686 185.802 117.723 186.16C117.728 186.206 117.733 186.251 117.738 186.296C118.023 188.725 118.129 191.195 117.681 193.612C117.449 194.865 116.931 196.16 116.318 197.284C116.218 197.466 116.24 197.5 116.516 197.361C118.454 196.38 119.821 194.141 120.793 192.284C122.251 189.495 122.791 186.567 122.981 183.443C123.223 179.447 123.249 175.289 122.682 171.318C122.407 169.391 121.708 167.755 120.911 166.025C120.873 165.942 120.836 165.848 120.798 165.751C120.728 165.571 120.654 165.382 120.561 165.239C120.054 165.698 119.54 166.162 119.021 166.63Z" fill="#082D59"/>
<path d="M85.8782 121.451C85.8782 137.522 75.5137 150.55 62.7286 150.55C49.9434 150.55 39.5791 137.522 39.5791 121.451C39.5791 105.38 49.9434 92.3511 62.7286 92.3511C75.5137 92.3511 85.8782 105.38 85.8782 121.451Z" fill="#DA2C2C"/>
<path fill-rule="evenodd" clip-rule="evenodd" d="M62.7286 146.857C72.7349 146.857 82.1874 136.312 82.1874 121.451C82.1874 106.59 72.7349 96.0446 62.7286 96.0446C52.7225 96.0446 43.27 106.59 43.27 121.451C43.27 136.312 52.7225 146.857 62.7286 146.857ZM62.7286 150.55C75.5137 150.55 85.8782 137.522 85.8782 121.451C85.8782 105.38 75.5137 92.3511 62.7286 92.3511C49.9434 92.3511 39.5791 105.38 39.5791 121.451C39.5791 137.522 49.9434 150.55 62.7286 150.55Z" fill="#082D59"/>
<path d="M152.814 121.413C152.814 137.484 142.449 150.513 129.664 150.513C116.879 150.513 106.515 137.484 106.515 121.413C106.515 105.342 116.879 92.3132 129.664 92.3132C142.449 92.3132 152.814 105.342 152.814 121.413Z" fill="#DA2C2C"/>
<path fill-rule="evenodd" clip-rule="evenodd" d="M129.664 146.859C139.67 146.859 149.123 136.314 149.123 121.453C149.123 106.591 139.67 96.0465 129.664 96.0465C119.658 96.0465 110.205 106.591 110.205 121.453C110.205 136.314 119.658 146.859 129.664 146.859ZM129.664 150.552C142.449 150.552 152.814 137.524 152.814 121.453C152.814 105.382 142.449 92.353 129.664 92.353C116.879 92.353 106.515 105.382 106.515 121.453C106.515 137.524 116.879 150.552 129.664 150.552Z" fill="#082D59"/>
</svg>
